# xmcd CD database file
#
# Track frame offsets:
#	150
#	24785
#	41092
#	62945
#	86102
#	105405
#	130047
#	158715
#	182040
#	203985
#
# Disc length: 3035 seconds
#
# Revision: 3
# Processed by: cddbd v1.5.1PL0 Copyright (c) Steve Scherf et al.
# Submitted via: CDex 1.50Beta7
#
DISCID=7e0bd90a
DTITLE=Hazeldine - How Bees Fly
DYEAR=1900
DGENRE=Indie
TTITLE0=Apothecary
TTITLE1=Tarmac
TTITLE2=My Magdeline
TTITLE3=Yer Shoes
TTITLE4=Allergic to Love
TTITLE5=Rosemary Cries
TTITLE6=Fuzzy
TTITLE7=Daddy
TTITLE8=Bastard Son Of Medora
TTITLE9=Postcard
EXTD=
EXTT0=
EXTT1=
EXTT2=
EXTT3=
EXTT4=
EXTT5=
EXTT6=
EXTT7=
EXTT8=
EXTT9=
PLAYORDER=
